<svg version="1.1" baseProfile="full" xmlns="http://www.w3.org/2000/svg" width="382.1333333333333" height="80">
	<g>
		<line x1="10" y1="40.0" x2="372.1333333333333" y2="40.0" style="stroke:rgb(70,70,70); stroke-width:3 "/>
		<g>
			<title> (ctg1_180)</title>
			<polygon class=" (ctg1_180)" points="197,40 219,10 219,70" fill="rgb(255,255,255)" fill-opacity="1.0" stroke="rgb(0,0,0)" stroke-width="2"  />
			<g>
				<title>ABC_tran (PF00005)
"ABC transporter"</title>
				<polygon class="PF00005" points="202,39 210,28 216,28 216,52 210,52 202,41" stroke-linejoin="round" width="14" height="24" fill="rgb(63,205,104)" stroke="rgb(50,164,83)" stroke-width="1" opacity="0.75" />
			</g>
		</g>
		<g>
			<title> (ctg1_181)</title>
			<polygon class=" (ctg1_181)" points="311,25 249,25 249,10 219,40 249,70 249,55 311,55" fill="rgb(255,255,255)" fill-opacity="1.0" stroke="rgb(0,0,0)" stroke-width="2"  />
		</g>
		<g>
			<title> (ctg1_182)</title>
			<polygon class=" (ctg1_182)" points="314,40 328,10 328,70" fill="rgb(255,255,255)" fill-opacity="1.0" stroke="rgb(0,0,0)" stroke-width="2"  />
		</g>
		<g>
			<title> (ctg1_183)</title>
			<polygon class=" (ctg1_183)" points="330,40 339,10 339,70" fill="rgb(255,255,255)" fill-opacity="1.0" stroke="rgb(0,0,0)" stroke-width="2"  />
		</g>
		<g>
			<title> (ctg1_184)</title>
			<polygon class=" (ctg1_184)" points="343,10 362,40 343,70" fill="rgb(255,255,255)" fill-opacity="1.0" stroke="rgb(0,0,0)" stroke-width="2"  />
			<g>
				<title>AgrB (PF04647)
"Accessory gene regulator B"</title>
				<polygon class="PF04647" points="343,28 351,28 358,40 351,52 343,52" stroke-linejoin="round" width="17" height="24" fill="rgb(67,227,212)" stroke="rgb(53,181,169)" stroke-width="1" opacity="0.75" />
			</g>
		</g>
		<g>
			<title> (ctg1_185)</title>
			<polygon class=" (ctg1_185)" points="362,10 371,40 362,70" fill="rgb(255,255,255)" fill-opacity="1.0" stroke="rgb(0,0,0)" stroke-width="2"  />
			<g>
				<title>Response_reg (PF00072)
"Response regulator receiver domain"</title>
				<polygon class="PF00072" points="362,28 364,28 368,40 364,52 362,52" stroke-linejoin="round" width="8" height="24" fill="rgb(209,129,92)" stroke="rgb(167,103,73)" stroke-width="1" opacity="0.75" />
			</g>
		</g>
	</g>
</svg>
