<svg version="1.1" baseProfile="full" xmlns="http://www.w3.org/2000/svg" width="165.06666666666666" height="80">
	<g>
		<line x1="10" y1="40.0" x2="155.06666666666666" y2="40.0" style="stroke:rgb(70,70,70); stroke-width:3 "/>
		<g>
			<title> (ctg187_1)</title>
			<polygon class=" (ctg187_1)" points="44,25 40,25 40,10 10,40 40,70 40,55 44,55" fill="rgb(255,255,255)" fill-opacity="1.0" stroke="rgb(0,0,0)" stroke-width="2"  />
			<g>
				<title>MatE (PF01554)
"MatE"</title>
				<polygon class="PF01554" points="14,40 20,34 20,46" stroke-linejoin="round" width="10" height="24" fill="rgb(220,99,114)" stroke="rgb(176,79,91)" stroke-width="1" opacity="0.75" />
			</g>
			<g>
				<title>MatE (PF01554)
"MatE"</title>
				<polygon class="PF01554" points="26,28 26,28 42,28 42,52 26,52 26,52" stroke-linejoin="round" width="16" height="24" fill="rgb(220,99,114)" stroke="rgb(176,79,91)" stroke-width="1" opacity="0.75" />
			</g>
		</g>
		<g>
			<title> (ctg187_2)</title>
			<polygon class=" (ctg187_2)" points="59,25 74,25 74,10 104,40 74,70 74,55 59,55" fill="rgb(255,255,255)" fill-opacity="1.0" stroke="rgb(0,0,0)" stroke-width="2"  />
			<g>
				<title>Fer4_12 (PF13353)
"4Fe-4S single cluster domain"</title>
				<rect class="PF13353" x="68" y="28" stroke-linejoin="round" width="14" height="24" fill="rgb(86,133,197)" stroke="rgb(68,106,157)" stroke-width="1" opacity="0.75" />
			</g>
		</g>
		<g>
			<title> (ctg187_3)</title>
			<polygon class=" (ctg187_3)" points="105,25 124,25 124,10 154,40 124,70 124,55 105,55" fill="rgb(255,255,255)" fill-opacity="1.0" stroke="rgb(0,0,0)" stroke-width="2"  />
			<g>
				<title>Sec_GG (PF07549)
"SecD/SecF GG Motif"</title>
				<rect class="PF07549" x="109" y="28" stroke-linejoin="round" width="1" height="24" fill="rgb(100,222,112)" stroke="rgb(80,177,89)" stroke-width="1" opacity="0.75" />
			</g>
			<g>
				<title>SecD_SecF (PF02355)
"Protein export membrane protein"</title>
				<polygon class="PF02355" points="128,28 138,28 145,35 145,45 138,52 128,52" stroke-linejoin="round" width="17" height="24" fill="rgb(61,192,83)" stroke="rgb(48,153,66)" stroke-width="1" opacity="0.75" />
			</g>
			<g>
				<title>Sec_GG (PF07549)
"SecD/SecF GG Motif"</title>
				<polygon class="PF07549" points="150,40 150,40 150,40" stroke-linejoin="round" width="2" height="24" fill="rgb(100,222,112)" stroke="rgb(80,177,89)" stroke-width="1" opacity="0.75" />
			</g>
		</g>
	</g>
</svg>
