<svg version="1.1" baseProfile="full" xmlns="http://www.w3.org/2000/svg" width="695.5666666666667" height="80">
	<g>
		<line x1="10" y1="40.0" x2="685.5666666666667" y2="40.0" style="stroke:rgb(70,70,70); stroke-width:3 "/>
		<g>
			<title> (ctg1_1452)</title>
			<polygon class=" (ctg1_1452)" points="20,40 29,10 29,70" fill="rgb(255,255,255)" fill-opacity="1.0" stroke="rgb(0,0,0)" stroke-width="2"  />
			<g>
				<title>DUF4491 (PF14898)
"Domain of unknown function (DUF4491)"</title>
				<polygon class="PF14898" points="23,40 27,28 29,28 29,52 27,52" stroke-linejoin="round" width="9" height="24" fill="rgb(86,183,125)" stroke="rgb(68,146,100)" stroke-width="1" opacity="0.75" />
			</g>
		</g>
		<g>
			<title> (ctg1_1453)</title>
			<polygon class=" (ctg1_1453)" points="31,25 61,25 61,10 91,40 61,70 61,55 31,55" fill="rgb(255,255,255)" fill-opacity="1.0" stroke="rgb(0,0,0)" stroke-width="2"  />
			<g>
				<title>PGM_PMM_I (PF02878)
"Phosphoglucomutase/phosphomannomutase, alpha/beta/alpha domain I"</title>
				<rect class="PF02878" x="38" y="28" stroke-linejoin="round" width="14" height="24" fill="rgb(214,82,65)" stroke="rgb(171,65,52)" stroke-width="1" opacity="0.75" />
			</g>
			<g>
				<title>PGM_PMM_II (PF02879)
"Phosphoglucomutase/phosphomannomutase, alpha/beta/alpha domain II"</title>
				<rect class="PF02879" x="54" y="28" stroke-linejoin="round" width="10" height="24" fill="rgb(178,184,57)" stroke="rgb(142,147,45)" stroke-width="1" opacity="0.75" />
			</g>
			<g>
				<title>PGM_PMM_III (PF02880)
"Phosphoglucomutase/phosphomannomutase, alpha/beta/alpha domain III"</title>
				<polygon class="PF02880" points="65,28 75,28 77,30 77,50 75,52 65,52" stroke-linejoin="round" width="12" height="24" fill="rgb(121,218,81)" stroke="rgb(96,174,64)" stroke-width="1" opacity="0.75" />
			</g>
			<g>
				<title>PGM_PMM_IV (PF00408)
"Phosphoglucomutase/phosphomannomutase, C-terminal domain"</title>
				<polygon class="PF00408" points="81,34 87,40 81,46" stroke-linejoin="round" width="8" height="24" fill="rgb(87,145,209)" stroke="rgb(69,116,167)" stroke-width="1" opacity="0.75" />
			</g>
		</g>
		<g>
			<title> (ctg1_1454)</title>
			<polygon class=" (ctg1_1454)" points="92,10 107,40 92,70" fill="rgb(255,255,255)" fill-opacity="1.0" stroke="rgb(0,0,0)" stroke-width="2"  />
			<g>
				<title>MaoC_dehydratas (PF01575)
"MaoC like domain"</title>
				<polygon class="PF01575" points="93,28 97,28 104,40 97,52 93,52" stroke-linejoin="round" width="12" height="24" fill="rgb(226,97,162)" stroke="rgb(180,77,129)" stroke-width="1" opacity="0.75" />
			</g>
		</g>
		<g>
			<title> (ctg1_1455)</title>
			<polygon class=" (ctg1_1455)" points="107,40 111,10 111,70" fill="rgb(255,255,255)" fill-opacity="1.0" stroke="rgb(0,0,0)" stroke-width="2"  />
		</g>
		<g>
			<title> (ctg1_1456)</title>
			<polygon class=" (ctg1_1456)" points="114,40 143,10 143,70" fill="rgb(255,255,255)" fill-opacity="1.0" stroke="rgb(0,0,0)" stroke-width="2"  />
			<g>
				<title>Thy1 (PF02511)
"Thymidylate synthase complementing protein"</title>
				<polygon class="PF02511" points="118,40 130,28 133,28 133,52 130,52" stroke-linejoin="round" width="19" height="24" fill="rgb(93,116,187)" stroke="rgb(74,92,149)" stroke-width="1" opacity="0.75" />
			</g>
		</g>
		<g>
			<title> (ctg1_1457)</title>
			<polygon class=" (ctg1_1457)" points="144,40 166,10 166,70" fill="rgb(255,255,255)" fill-opacity="1.0" stroke="rgb(0,0,0)" stroke-width="2"  />
		</g>
		<g>
			<title> (ctg1_1458)</title>
			<polygon class=" (ctg1_1458)" points="244,25 197,25 197,10 167,40 197,70 197,55 244,55" fill="rgb(255,255,255)" fill-opacity="1.0" stroke="rgb(0,0,0)" stroke-width="2"  />
			<g>
				<title>Transpeptidase (PF00905)
"Penicillin binding protein transpeptidase domain"</title>
				<polygon class="PF00905" points="174,37 183,28 199,28 199,52 183,52 174,43" stroke-linejoin="round" width="25" height="24" fill="rgb(206,64,216)" stroke="rgb(164,51,172)" stroke-width="1" opacity="0.75" />
			</g>
			<g>
				<title>Transgly (PF00912)
"Transglycosylase"</title>
				<rect class="PF00912" x="220" y="28" stroke-linejoin="round" width="18" height="24" fill="rgb(123,195,88)" stroke="rgb(98,156,70)" stroke-width="1" opacity="0.75" />
			</g>
		</g>
		<g>
			<title> (ctg1_1459)</title>
			<polygon class=" (ctg1_1459)" points="246,25 249,25 249,10 279,40 249,70 249,55 246,55" fill="rgb(255,255,255)" fill-opacity="1.0" stroke="rgb(0,0,0)" stroke-width="2"  />
			<g>
				<title>OTCace_N (PF02729)
"Aspartate/ornithine carbamoyltransferase, carbamoyl-P binding domain"</title>
				<rect class="PF02729" x="247" y="28" stroke-linejoin="round" width="13" height="24" fill="rgb(217,91,219)" stroke="rgb(173,72,175)" stroke-width="1" opacity="0.75" />
			</g>
			<g>
				<title>OTCace (PF00185)
"Aspartate/ornithine carbamoyltransferase, Asp/Orn binding domain"</title>
				<polygon class="PF00185" points="262,28 263,28 275,40 263,52 262,52" stroke-linejoin="round" width="15" height="24" fill="rgb(95,205,175)" stroke="rgb(76,164,139)" stroke-width="1" opacity="0.75" />
			</g>
		</g>
		<g>
			<title> (ctg1_1460)</title>
			<polygon class=" (ctg1_1460)" points="279,10 294,40 279,70" fill="rgb(255,255,255)" fill-opacity="1.0" stroke="rgb(0,0,0)" stroke-width="2"  />
			<g>
				<title>PyrI (PF01948)
"Aspartate carbamoyltransferase regulatory chain, allosteric domain"</title>
				<polygon class="PF01948" points="279,28 284,28 288,35 288,45 284,52 279,52" stroke-linejoin="round" width="9" height="24" fill="rgb(228,83,167)" stroke="rgb(182,66,133)" stroke-width="1" opacity="0.75" />
			</g>
			<g>
				<title>PyrI_C (PF02748)
"Aspartate carbamoyltransferase regulatory chain, metal binding domain"</title>
				<polygon class="PF02748" points="289,37 290,40 289,43" stroke-linejoin="round" width="4" height="24" fill="rgb(165,189,62)" stroke="rgb(132,151,49)" stroke-width="1" opacity="0.75" />
			</g>
		</g>
		<g>
			<title> (ctg1_1461)</title>
			<polygon class=" (ctg1_1461)" points="298,25 310,25 310,10 340,40 310,70 310,55 298,55" fill="rgb(255,255,255)" fill-opacity="1.0" stroke="rgb(0,0,0)" stroke-width="2"  />
			<g>
				<title>SHMT (PF00464)
"Serine hydroxymethyltransferase"</title>
				<polygon class="PF00464" points="298,28 324,28 336,40 324,52 298,52" stroke-linejoin="round" width="39" height="24" fill="rgb(145,68,179)" stroke="rgb(116,54,143)" stroke-width="1" opacity="0.75" />
			</g>
		</g>
		<g>
			<title> (ctg1_1462)</title>
			<polygon class=" (ctg1_1462)" points="343,40 351,10 351,70" fill="rgb(255,255,255)" fill-opacity="1.0" stroke="rgb(0,0,0)" stroke-width="2"  />
			<g>
				<title>PqqD (PF05402)
"Coenzyme PQQ synthesis protein D (PqqD)"</title>
				<polygon class="PF05402" points="346,40 350,28 350,28 350,52 350,52" stroke-linejoin="round" width="7" height="24" fill="rgb(218,64,155)" stroke="rgb(174,51,124)" stroke-width="1" opacity="0.75" />
			</g>
		</g>
		<g>
			<title> (ctg1_1463)</title>
			<polygon class=" (ctg1_1463)" points="353,40 369,10 369,70" fill="rgb(255,255,255)" fill-opacity="1.0" stroke="rgb(0,0,0)" stroke-width="2"  />
		</g>
		<g>
			<title> (ctg1_1464)</title>
			<polygon class=" (ctg1_1464)" points="368,40 397,10 397,70" fill="rgb(255,255,255)" fill-opacity="1.0" stroke="rgb(0,0,0)" stroke-width="2"  />
		</g>
		<g>
			<title> (ctg1_1465)</title>
			<polygon class=" (ctg1_1465)" points="400,40 415,10 415,70" fill="rgb(255,255,255)" fill-opacity="1.0" stroke="rgb(0,0,0)" stroke-width="2"  />
		</g>
		<g>
			<title> (ctg1_1466)</title>
			<polygon class=" (ctg1_1466)" points="416,40 444,10 444,70" fill="rgb(255,255,255)" fill-opacity="1.0" stroke="rgb(0,0,0)" stroke-width="2"  />
			<g>
				<title>Sigma70_r4 (PF04545)
"Sigma-70, region 4"</title>
				<polygon class="PF04545" points="420,40 422,38 422,42" stroke-linejoin="round" width="5" height="24" fill="rgb(190,171,50)" stroke="rgb(152,136,39)" stroke-width="1" opacity="0.75" />
			</g>
			<g>
				<title>Sigma70_r3 (PF04539)
"Sigma-70 region 3"</title>
				<polygon class="PF04539" points="423,37 430,30 430,50 423,43" stroke-linejoin="round" width="7" height="24" fill="rgb(192,162,53)" stroke="rgb(153,129,42)" stroke-width="1" opacity="0.75" />
			</g>
			<g>
				<title>Sigma70_r2 (PF04542)
"Sigma-70 region 2"</title>
				<polygon class="PF04542" points="432,28 432,28 439,28 439,52 432,52 432,52" stroke-linejoin="round" width="7" height="24" fill="rgb(89,63,196)" stroke="rgb(71,50,156)" stroke-width="1" opacity="0.75" />
			</g>
			<g>
				<title>Sigma70_r1_2 (PF00140)
"Sigma-70 factor, region 1.2"</title>
				<rect class="PF00140" x="439" y="28" stroke-linejoin="round" width="3" height="24" fill="rgb(142,187,82)" stroke="rgb(113,149,65)" stroke-width="1" opacity="0.75" />
			</g>
		</g>
		<g>
			<title> (ctg1_1467)</title>
			<polygon class=" (ctg1_1467)" points="472,25 532,25 532,10 562,40 532,70 532,55 472,55" fill="rgb(255,255,255)" fill-opacity="1.0" stroke="rgb(0,0,0)" stroke-width="2"  />
			<g>
				<title>PPDK_N (PF01326)
"Pyruvate phosphate dikinase, AMP/ATP-binding domain"</title>
				<rect class="PF01326" x="474" y="28" stroke-linejoin="round" width="37" height="24" fill="rgb(181,216,100)" stroke="rgb(144,172,80)" stroke-width="1" opacity="0.75" />
			</g>
			<g>
				<title>PEP-utilizers (PF00391)
"PEP-utilising enzyme, mobile domain"</title>
				<rect class="PF00391" x="517" y="28" stroke-linejoin="round" width="8" height="24" fill="rgb(54,184,75)" stroke="rgb(43,147,59)" stroke-width="1" opacity="0.75" />
			</g>
			<g>
				<title>PEP-utilizers_C (PF02896)
"PEP-utilising enzyme, PEP-binding domain"</title>
				<polygon class="PF02896" points="526,28 546,28 558,40 546,52 526,52" stroke-linejoin="round" width="35" height="24" fill="rgb(69,128,189)" stroke="rgb(55,102,151)" stroke-width="1" opacity="0.75" />
			</g>
		</g>
		<g>
			<title> (ctg1_1468)</title>
			<polygon class=" (ctg1_1468)" points="565,40 593,10 593,70" fill="rgb(255,255,255)" fill-opacity="1.0" stroke="rgb(0,0,0)" stroke-width="2"  />
			<g>
				<title>HTH_18 (PF12833)
"Helix-turn-helix domain"</title>
				<polygon class="PF12833" points="569,40 572,37 572,43" stroke-linejoin="round" width="7" height="24" fill="rgb(83,220,97)" stroke="rgb(66,176,77)" stroke-width="1" opacity="0.75" />
			</g>
		</g>
		<g>
			<title> (ctg1_1469)</title>
			<polygon class=" (ctg1_1469)" points="637,25 627,25 627,10 597,40 627,70 627,55 637,55" fill="rgb(255,255,255)" fill-opacity="1.0" stroke="rgb(0,0,0)" stroke-width="2"  />
			<g>
				<title>GlcNAc_2-epim (PF07221)
"N-acylglucosamine 2-epimerase (GlcNAc 2-epimerase)"</title>
				<polygon class="PF07221" points="601,40 613,28 633,28 633,52 613,52" stroke-linejoin="round" width="35" height="24" fill="rgb(127,203,96)" stroke="rgb(101,162,76)" stroke-width="1" opacity="0.75" />
			</g>
		</g>
	</g>
</svg>
