<svg version="1.1" baseProfile="full" xmlns="http://www.w3.org/2000/svg" width="1538.8" height="80">
	<g>
		<line x1="10" y1="40.0" x2="1528.8" y2="40.0" style="stroke:rgb(70,70,70); stroke-width:3 "/>
		<g>
			<title> (ctg2_732)</title>
			<polygon class=" (ctg2_732)" points="22,40 41,10 41,70" fill="rgb(255,255,255)" fill-opacity="1.0" stroke="rgb(0,0,0)" stroke-width="2"  />
			<g>
				<title>Cytidylate_kin2 (PF13189)
"Cytidylate kinase-like family"</title>
				<polygon class="PF13189" points="26,40 34,28 41,28 41,52 34,52" stroke-linejoin="round" width="17" height="24" fill="rgb(209,104,74)" stroke="rgb(167,83,59)" stroke-width="1" opacity="0.75" />
			</g>
		</g>
		<g>
			<title> (ctg2_733)</title>
			<polygon class=" (ctg2_733)" points="84,25 78,25 78,10 48,40 78,70 78,55 84,55" fill="rgb(255,255,255)" fill-opacity="1.0" stroke="rgb(0,0,0)" stroke-width="2"  />
			<g>
				<title>AAA_28 (PF13521)
"AAA domain"</title>
				<rect class="PF13521" x="65" y="28" stroke-linejoin="round" width="18" height="24" fill="rgb(90,219,76)" stroke="rgb(71,175,60)" stroke-width="1" opacity="0.75" />
			</g>
		</g>
		<g>
			<title> (ctg2_734)</title>
			<polygon class=" (ctg2_734)" points="90,10 98,40 90,70" fill="rgb(255,255,255)" fill-opacity="1.0" stroke="rgb(0,0,0)" stroke-width="2"  />
		</g>
		<g>
			<title> (ctg2_735)</title>
			<polygon class=" (ctg2_735)" points="103,25 163,25 163,10 193,40 163,70 163,55 103,55" fill="rgb(255,255,255)" fill-opacity="1.0" stroke="rgb(0,0,0)" stroke-width="2"  />
			<g>
				<title>Plug (PF07715)
"TonB-dependent Receptor Plug Domain"</title>
				<rect class="PF07715" x="106" y="28" stroke-linejoin="round" width="10" height="24" fill="rgb(225,128,93)" stroke="rgb(180,102,74)" stroke-width="1" opacity="0.75" />
			</g>
		</g>
		<g>
			<title> (ctg2_736)</title>
			<polygon class=" (ctg2_736)" points="191,25 217,25 217,10 247,40 217,70 217,55 191,55" fill="rgb(255,255,255)" fill-opacity="1.0" stroke="rgb(0,0,0)" stroke-width="2"  />
			<g>
				<title>SusD-like_3 (PF14322)
"Starch-binding associating with outer membrane"</title>
				<rect class="PF14322" x="199" y="28" stroke-linejoin="round" width="16" height="24" fill="rgb(172,201,63)" stroke="rgb(137,160,50)" stroke-width="1" opacity="0.75" />
			</g>
			<g>
				<title>SusD_RagB (PF07980)
"SusD family"</title>
				<polygon class="PF07980" points="221,28 231,28 243,40 231,52 221,52" stroke-linejoin="round" width="25" height="24" fill="rgb(115,72,179)" stroke="rgb(91,57,143)" stroke-width="1" opacity="0.75" />
			</g>
		</g>
		<g>
			<title> (ctg2_737)</title>
			<polygon class=" (ctg2_737)" points="262,40 286,10 286,70" fill="rgb(255,255,255)" fill-opacity="1.0" stroke="rgb(0,0,0)" stroke-width="2"  />
			<g>
				<title>DUF6198 (PF19700)
"Family of unknown function (DUF6198)"</title>
				<polygon class="PF19700" points="266,40 276,28 286,28 286,52 276,52" stroke-linejoin="round" width="22" height="24" fill="rgb(222,69,170)" stroke="rgb(177,55,135)" stroke-width="1" opacity="0.75" />
			</g>
		</g>
		<g>
			<title> (ctg2_738)</title>
			<polygon class=" (ctg2_738)" points="292,40 306,10 306,70" fill="rgb(255,255,255)" fill-opacity="1.0" stroke="rgb(0,0,0)" stroke-width="2"  />
		</g>
		<g>
			<title> (ctg2_739)</title>
			<polygon class=" (ctg2_739)" points="327,40 342,10 342,70" fill="rgb(255,255,255)" fill-opacity="1.0" stroke="rgb(0,0,0)" stroke-width="2"  />
			<g>
				<title>Acetyltransf_7 (PF13508)
"Acetyltransferase (GNAT) domain"</title>
				<polygon class="PF13508" points="331,38 336,28 342,28 342,52 336,52 331,42" stroke-linejoin="round" width="11" height="24" fill="rgb(147,190,56)" stroke="rgb(117,152,44)" stroke-width="1" opacity="0.75" />
			</g>
		</g>
		<g>
			<title> (ctg2_740)</title>
			<polygon class=" (ctg2_740)" points="343,40 348,10 348,70" fill="rgb(255,255,255)" fill-opacity="1.0" stroke="rgb(0,0,0)" stroke-width="2"  />
		</g>
		<g>
			<title> (ctg2_741)</title>
			<polygon class=" (ctg2_741)" points="410,25 389,25 389,10 359,40 389,70 389,55 410,55" fill="rgb(255,255,255)" fill-opacity="1.0" stroke="rgb(0,0,0)" stroke-width="2"  />
			<g>
				<title>SusD_RagB (PF07980)
"SusD family"</title>
				<polygon class="PF07980" points="363,40 375,28 386,28 386,52 375,52" stroke-linejoin="round" width="27" height="24" fill="rgb(115,72,179)" stroke="rgb(91,57,143)" stroke-width="1" opacity="0.75" />
			</g>
			<g>
				<title>SusD-like_3 (PF14322)
"Starch-binding associating with outer membrane"</title>
				<rect class="PF14322" x="386" y="28" stroke-linejoin="round" width="21" height="24" fill="rgb(172,201,63)" stroke="rgb(137,160,50)" stroke-width="1" opacity="0.75" />
			</g>
		</g>
		<g>
			<title> (ctg2_742)</title>
			<polygon class=" (ctg2_742)" points="519,25 441,25 441,10 411,40 441,70 441,55 519,55" fill="rgb(255,255,255)" fill-opacity="1.0" stroke="rgb(0,0,0)" stroke-width="2"  />
			<g>
				<title>TonB_dep_Rec (PF00593)
"TonB dependent receptor"</title>
				<polygon class="PF00593" points="415,40 427,28 476,28 476,52 427,52" stroke-linejoin="round" width="65" height="24" fill="rgb(192,50,77)" stroke="rgb(153,40,61)" stroke-width="1" opacity="0.75" />
			</g>
			<g>
				<title>Plug (PF07715)
"TonB-dependent Receptor Plug Domain"</title>
				<rect class="PF07715" x="497" y="28" stroke-linejoin="round" width="10" height="24" fill="rgb(225,128,93)" stroke="rgb(180,102,74)" stroke-width="1" opacity="0.75" />
			</g>
			<g>
				<title>CarbopepD_reg_2 (PF13715)
"CarboxypepD_reg-like domain"</title>
				<rect class="PF13715" x="509" y="28" stroke-linejoin="round" width="8" height="24" fill="rgb(137,223,103)" stroke="rgb(109,178,82)" stroke-width="1" opacity="0.75" />
			</g>
		</g>
		<g>
			<title> (ctg2_743)</title>
			<polygon class=" (ctg2_743)" points="615,25 561,25 561,10 531,40 561,70 561,55 615,55" fill="rgb(255,255,255)" fill-opacity="1.0" stroke="rgb(0,0,0)" stroke-width="2"  />
			<g>
				<title>Cellulase (PF00150)
"Cellulase (glycosyl hydrolase family 5)"</title>
				<rect class="PF00150" x="579" y="28" stroke-linejoin="round" width="27" height="24" fill="rgb(175,209,71)" stroke="rgb(140,167,56)" stroke-width="1" opacity="0.75" />
			</g>
		</g>
		<g>
			<title> (ctg2_744)</title>
			<polygon class=" (ctg2_744)" points="621,10 637,40 621,70" fill="rgb(255,255,255)" fill-opacity="1.0" stroke="rgb(0,0,0)" stroke-width="2"  />
			<g>
				<title>DUF3237 (PF11578)
"Protein of unknown function (DUF3237)"</title>
				<polygon class="PF11578" points="623,28 627,28 633,40 627,52 623,52" stroke-linejoin="round" width="13" height="24" fill="rgb(126,227,100)" stroke="rgb(100,181,80)" stroke-width="1" opacity="0.75" />
			</g>
		</g>
		<g>
			<title> (ctg2_745)</title>
			<polygon class=" (ctg2_745)" points="654,10 671,40 654,70" fill="rgb(255,255,255)" fill-opacity="1.0" stroke="rgb(0,0,0)" stroke-width="2"  />
		</g>
		<g>
			<title> (ctg2_746)</title>
			<polygon class=" (ctg2_746)" points="676,25 686,25 686,10 716,40 686,70 686,55 676,55" fill="rgb(255,255,255)" fill-opacity="1.0" stroke="rgb(0,0,0)" stroke-width="2"  />
			<g>
				<title>ketoacyl-synt (PF00109)
"Beta-ketoacyl synthase, N-terminal domain"</title>
				<rect class="PF00109" x="676" y="28" stroke-linejoin="round" width="24" height="24" fill="rgb(192,125,89)" stroke="rgb(153,100,71)" stroke-width="1" opacity="0.75" />
			</g>
			<g>
				<title>Ketoacyl-synt_C (PF02801)
"Beta-ketoacyl synthase, C-terminal domain"</title>
				<polygon class="PF02801" points="701,29 712,40 712,40 701,51" stroke-linejoin="round" width="11" height="24" fill="rgb(125,187,78)" stroke="rgb(100,149,62)" stroke-width="1" opacity="0.75" />
			</g>
		</g>
		<g>
			<title> (ctg2_747)</title>
			<polygon class=" (ctg2_747)" points="720,25 726,25 726,10 756,40 726,70 726,55 720,55" fill="rgb(255,255,255)" fill-opacity="1.0" stroke="rgb(0,0,0)" stroke-width="2"  />
			<g>
				<title>Methyltransf_23 (PF13489)
"Methyltransferase domain"</title>
				<polygon class="PF13489" points="736,28 740,28 752,40 740,52 736,52" stroke-linejoin="round" width="18" height="24" fill="rgb(71,187,149)" stroke="rgb(56,149,119)" stroke-width="1" opacity="0.75" />
			</g>
		</g>
		<g>
			<title> (ctg2_748)</title>
			<polygon class=" (ctg2_748)" points="758,10 766,40 758,70" fill="rgb(255,255,255)" fill-opacity="1.0" stroke="rgb(0,0,0)" stroke-width="2"  />
			<g>
				<title>PP-binding (PF00550)
"Phosphopantetheine attachment site"</title>
				<polygon class="PF00550" points="758,28 759,28 763,40 759,52 758,52" stroke-linejoin="round" width="6" height="24" fill="rgb(191,92,64)" stroke="rgb(152,73,51)" stroke-width="1" opacity="0.75" />
			</g>
		</g>
		<g>
			<title> (ctg2_749)</title>
			<polygon class=" (ctg2_749)" points="767,10 796,40 767,70" fill="rgb(255,255,255)" fill-opacity="1.0" stroke="rgb(0,0,0)" stroke-width="2"  />
			<g>
				<title>Lip_A_acyltrans (PF03279)
"Bacterial lipid A biosynthesis acyltransferase"</title>
				<polygon class="PF03279" points="775,28 780,28 792,40 780,52 775,52" stroke-linejoin="round" width="21" height="24" fill="rgb(102,224,95)" stroke="rgb(81,179,76)" stroke-width="1" opacity="0.75" />
			</g>
		</g>
		<g>
			<title> (ctg2_750)</title>
			<polygon class=" (ctg2_750)" points="796,10 811,40 796,70" fill="rgb(255,255,255)" fill-opacity="1.0" stroke="rgb(0,0,0)" stroke-width="2"  />
		</g>
		<g>
			<title> (ctg2_751)</title>
			<polygon class=" (ctg2_751)" points="814,10 821,40 814,70" fill="rgb(255,255,255)" fill-opacity="1.0" stroke="rgb(0,0,0)" stroke-width="2"  />
			<g>
				<title>PP-binding (PF00550)
"Phosphopantetheine attachment site"</title>
				<polygon class="PF00550" points="814,28 815,28 818,40 815,52 814,52" stroke-linejoin="round" width="6" height="24" fill="rgb(191,92,64)" stroke="rgb(152,73,51)" stroke-width="1" opacity="0.75" />
			</g>
		</g>
		<g>
			<title> (ctg2_752)</title>
			<polygon class=" (ctg2_752)" points="824,25 831,25 831,10 861,40 831,70 831,55 824,55" fill="rgb(255,255,255)" fill-opacity="1.0" stroke="rgb(0,0,0)" stroke-width="2"  />
			<g>
				<title>ketoacyl-synt (PF00109)
"Beta-ketoacyl synthase, N-terminal domain"</title>
				<rect class="PF00109" x="825" y="28" stroke-linejoin="round" width="18" height="24" fill="rgb(192,125,89)" stroke="rgb(153,100,71)" stroke-width="1" opacity="0.75" />
			</g>
			<g>
				<title>Ketoacyl-synt_C (PF02801)
"Beta-ketoacyl synthase, C-terminal domain"</title>
				<polygon class="PF02801" points="845,28 845,28 856,39 856,41 845,52 845,52" stroke-linejoin="round" width="11" height="24" fill="rgb(125,187,78)" stroke="rgb(100,149,62)" stroke-width="1" opacity="0.75" />
			</g>
		</g>
		<g>
			<title> (ctg2_753)</title>
			<polygon class=" (ctg2_753)" points="861,10 882,40 861,70" fill="rgb(255,255,255)" fill-opacity="1.0" stroke="rgb(0,0,0)" stroke-width="2"  />
			<g>
				<title>Ketoacyl-synt_2 (PF13723)
"Beta-ketoacyl synthase, N-terminal domain"</title>
				<polygon class="PF13723" points="861,28 870,28 878,40 870,52 861,52" stroke-linejoin="round" width="19" height="24" fill="rgb(66,181,93)" stroke="rgb(52,144,74)" stroke-width="1" opacity="0.75" />
			</g>
		</g>
		<g>
			<title> (ctg2_754)</title>
			<polygon class=" (ctg2_754)" points="886,10 895,40 886,70" fill="rgb(255,255,255)" fill-opacity="1.0" stroke="rgb(0,0,0)" stroke-width="2"  />
		</g>
		<g>
			<title> (ctg2_755)</title>
			<polygon class=" (ctg2_755)" points="895,10 906,40 895,70" fill="rgb(255,255,255)" fill-opacity="1.0" stroke="rgb(0,0,0)" stroke-width="2"  />
			<g>
				<title>FabA (PF07977)
"FabA-like domain"</title>
				<polygon class="PF07977" points="896,28 898,28 903,40 898,52 896,52" stroke-linejoin="round" width="8" height="24" fill="rgb(87,182,79)" stroke="rgb(69,145,63)" stroke-width="1" opacity="0.75" />
			</g>
		</g>
		<g>
			<title> (ctg2_756)</title>
			<polygon class=" (ctg2_756)" points="907,10 932,40 907,70" fill="rgb(255,255,255)" fill-opacity="1.0" stroke="rgb(0,0,0)" stroke-width="2"  />
			<g>
				<title>Glycos_transf_2 (PF00535)
"Glycosyl transferase family 2"</title>
				<polygon class="PF00535" points="908,28 918,28 923,34 923,46 918,52 908,52" stroke-linejoin="round" width="15" height="24" fill="rgb(212,83,152)" stroke="rgb(169,66,121)" stroke-width="1" opacity="0.75" />
			</g>
		</g>
		<g>
			<title> (ctg2_757)</title>
			<polygon class=" (ctg2_757)" points="932,25 1007,25 1007,10 1037,40 1007,70 1007,55 932,55" fill="rgb(255,255,255)" fill-opacity="1.0" stroke="rgb(0,0,0)" stroke-width="2"  />
			<g>
				<title>MMPL (PF03176)
"MMPL family"</title>
				<rect class="PF03176" x="939" y="28" stroke-linejoin="round" width="35" height="24" fill="rgb(74,204,114)" stroke="rgb(59,163,91)" stroke-width="1" opacity="0.75" />
			</g>
			<g>
				<title>MMPL (PF03176)
"MMPL family"</title>
				<rect class="PF03176" x="995" y="28" stroke-linejoin="round" width="17" height="24" fill="rgb(74,204,114)" stroke="rgb(59,163,91)" stroke-width="1" opacity="0.75" />
			</g>
			<g>
				<title>Acyltransferase (PF01553)
"Acyltransferase"</title>
				<polygon class="PF01553" points="1018,28 1021,28 1030,37 1030,43 1021,52 1018,52" stroke-linejoin="round" width="12" height="24" fill="rgb(196,175,90)" stroke="rgb(156,140,72)" stroke-width="1" opacity="0.75" />
			</g>
		</g>
		<g>
			<title> (ctg2_758)</title>
			<polygon class=" (ctg2_758)" points="1038,10 1065,40 1038,70" fill="rgb(255,255,255)" fill-opacity="1.0" stroke="rgb(0,0,0)" stroke-width="2"  />
			<g>
				<title>Peptidase_S9 (PF00326)
"Prolyl oligopeptidase family"</title>
				<polygon class="PF00326" points="1043,28 1049,28 1060,40 1049,52 1043,52" stroke-linejoin="round" width="20" height="24" fill="rgb(88,181,215)" stroke="rgb(70,144,172)" stroke-width="1" opacity="0.75" />
			</g>
		</g>
		<g>
			<title> (ctg2_759)</title>
			<polygon class=" (ctg2_759)" points="1147,25 1095,25 1095,10 1065,40 1095,70 1095,55 1147,55" fill="rgb(255,255,255)" fill-opacity="1.0" stroke="rgb(0,0,0)" stroke-width="2"  />
			<g>
				<title>Glyco_hyd_65N_2 (PF14498)
"Glycosyl hydrolase family 65, N-terminal domain"</title>
				<rect class="PF14498" x="1120" y="28" stroke-linejoin="round" width="24" height="24" fill="rgb(88,109,181)" stroke="rgb(70,87,144)" stroke-width="1" opacity="0.75" />
			</g>
		</g>
		<g>
			<title> (ctg2_760)</title>
			<polygon class=" (ctg2_760)" points="1179,25 1228,25 1228,10 1258,40 1228,70 1228,55 1179,55" fill="rgb(255,255,255)" fill-opacity="1.0" stroke="rgb(0,0,0)" stroke-width="2"  />
			<g>
				<title>CarbopepD_reg_2 (PF13715)
"CarboxypepD_reg-like domain"</title>
				<rect class="PF13715" x="1182" y="28" stroke-linejoin="round" width="8" height="24" fill="rgb(137,223,103)" stroke="rgb(109,178,82)" stroke-width="1" opacity="0.75" />
			</g>
			<g>
				<title>OMP_b-brl_3 (PF14905)
"Outer membrane protein beta-barrel family"</title>
				<polygon class="PF14905" points="1216,28 1241,28 1253,40 1241,52 1216,52" stroke-linejoin="round" width="39" height="24" fill="rgb(195,147,52)" stroke="rgb(156,117,41)" stroke-width="1" opacity="0.75" />
			</g>
		</g>
		<g>
			<title> (ctg2_761)</title>
			<polygon class=" (ctg2_761)" points="1316,25 1290,25 1290,10 1260,40 1290,70 1290,55 1316,55" fill="rgb(255,255,255)" fill-opacity="1.0" stroke="rgb(0,0,0)" stroke-width="2"  />
			<g>
				<title>5_nucleotid_C (PF02872)
"5'-nucleotidase, C-terminal domain"</title>
				<polygon class="PF02872" points="1266,38 1276,28 1283,28 1283,52 1276,52 1266,42" stroke-linejoin="round" width="17" height="24" fill="rgb(91,154,195)" stroke="rgb(72,123,156)" stroke-width="1" opacity="0.75" />
			</g>
			<g>
				<title>Metallophos (PF00149)
"Calcineurin-like phosphoesterase"</title>
				<rect class="PF00149" x="1292" y="28" stroke-linejoin="round" width="22" height="24" fill="rgb(80,220,114)" stroke="rgb(64,176,91)" stroke-width="1" opacity="0.75" />
			</g>
		</g>
		<g>
			<title> (ctg2_762)</title>
			<polygon class=" (ctg2_762)" points="1333,10 1354,40 1333,70" fill="rgb(255,255,255)" fill-opacity="1.0" stroke="rgb(0,0,0)" stroke-width="2"  />
		</g>
		<g>
			<title> (ctg2_763)</title>
			<polygon class=" (ctg2_763)" points="1504,10 1513,40 1504,70" fill="rgb(255,255,255)" fill-opacity="1.0" stroke="rgb(0,0,0)" stroke-width="2"  />
		</g>
	</g>
</svg>
