<svg version="1.1" baseProfile="full" xmlns="http://www.w3.org/2000/svg" width="425.3" height="80">
	<g>
		<line x1="10" y1="40.0" x2="415.3" y2="40.0" style="stroke:rgb(70,70,70); stroke-width:3 "/>
		<g>
			<title> (ctg63_1)</title>
			<polygon class=" (ctg63_1)" points="81,25 42,25 42,10 12,40 42,70 42,55 81,55" fill="rgb(255,255,255)" fill-opacity="1.0" stroke="rgb(0,0,0)" stroke-width="2"  />
		</g>
		<g>
			<title> (ctg63_2)</title>
			<polygon class=" (ctg63_2)" points="127,25 112,25 112,10 82,40 112,70 112,55 127,55" fill="rgb(255,255,255)" fill-opacity="1.0" stroke="rgb(0,0,0)" stroke-width="2"  />
		</g>
		<g>
			<title> (ctg63_3)</title>
			<polygon class=" (ctg63_3)" points="131,40 147,10 147,70" fill="rgb(255,255,255)" fill-opacity="1.0" stroke="rgb(0,0,0)" stroke-width="2"  />
			<g>
				<title>DUF2500 (PF10694)
"Protein of unknown function (DUF2500)"</title>
				<polygon class="PF10694" points="134,40 140,28 143,28 143,52 140,52" stroke-linejoin="round" width="10" height="24" fill="rgb(191,108,80)" stroke="rgb(152,86,64)" stroke-width="1" opacity="0.75" />
			</g>
		</g>
		<g>
			<title> (ctg63_4)</title>
			<polygon class=" (ctg63_4)" points="151,40 166,10 166,70" fill="rgb(255,255,255)" fill-opacity="1.0" stroke="rgb(0,0,0)" stroke-width="2"  />
		</g>
		<g>
			<title> (ctg63_5)</title>
			<polygon class=" (ctg63_5)" points="173,40 199,10 199,70" fill="rgb(255,255,255)" fill-opacity="1.0" stroke="rgb(0,0,0)" stroke-width="2"  />
		</g>
		<g>
			<title> (ctg63_6)</title>
			<polygon class=" (ctg63_6)" points="243,25 230,25 230,10 200,40 230,70 230,55 243,55" fill="rgb(255,255,255)" fill-opacity="1.0" stroke="rgb(0,0,0)" stroke-width="2"  />
		</g>
		<g>
			<title> (ctg63_7)</title>
			<polygon class=" (ctg63_7)" points="242,40 247,10 247,70" fill="rgb(255,255,255)" fill-opacity="1.0" stroke="rgb(0,0,0)" stroke-width="2"  />
		</g>
		<g>
			<title> (ctg63_8)</title>
			<polygon class=" (ctg63_8)" points="295,25 282,25 282,10 252,40 282,70 282,55 295,55" fill="rgb(255,255,255)" fill-opacity="1.0" stroke="rgb(0,0,0)" stroke-width="2"  />
			<g>
				<title>HATPase_c_5 (PF14501)
"GHKL domain"</title>
				<polygon class="PF14501" points="256,40 261,35 261,45" stroke-linejoin="round" width="9" height="24" fill="rgb(187,81,89)" stroke="rgb(149,64,71)" stroke-width="1" opacity="0.75" />
			</g>
		</g>
		<g>
			<title> (ctg63_9)</title>
			<polygon class=" (ctg63_9)" points="295,40 318,10 318,70" fill="rgb(255,255,255)" fill-opacity="1.0" stroke="rgb(0,0,0)" stroke-width="2"  />
			<g>
				<title>LytTR (PF04397)
"LytTr DNA-binding domain"</title>
				<polygon class="PF04397" points="299,40 304,34 304,46" stroke-linejoin="round" width="9" height="24" fill="rgb(154,92,215)" stroke="rgb(123,73,172)" stroke-width="1" opacity="0.75" />
			</g>
			<g>
				<title>Response_reg (PF00072)
"Response regulator receiver domain"</title>
				<polygon class="PF00072" points="306,31 309,28 317,28 317,52 309,52 306,49" stroke-linejoin="round" width="11" height="24" fill="rgb(209,129,92)" stroke="rgb(167,103,73)" stroke-width="1" opacity="0.75" />
			</g>
		</g>
		<g>
			<title> (ctg63_10)</title>
			<polygon class=" (ctg63_10)" points="414,25 353,25 353,10 323,40 353,70 353,55 414,55" fill="rgb(255,255,255)" fill-opacity="1.0" stroke="rgb(0,0,0)" stroke-width="2"  />
			<g>
				<title>DUF5915 (PF19302)
"Domain of unknown function (DUF5915)"</title>
				<polygon class="PF19302" points="327,40 339,28 342,28 342,52 339,52" stroke-linejoin="round" width="19" height="24" fill="rgb(89,197,142)" stroke="rgb(71,157,113)" stroke-width="1" opacity="0.75" />
			</g>
			<g>
				<title>Anticodon_1 (PF08264)
"Anticodon-binding domain of tRNA ligase"</title>
				<rect class="PF08264" x="343" y="28" stroke-linejoin="round" width="15" height="24" fill="rgb(95,220,162)" stroke="rgb(76,176,129)" stroke-width="1" opacity="0.75" />
			</g>
			<g>
				<title>tRNA-synt_1 (PF00133)
"tRNA synthetases class I (I, L, M and V)"</title>
				<rect class="PF00133" x="364" y="28" stroke-linejoin="round" width="49" height="24" fill="rgb(59,128,188)" stroke="rgb(47,102,150)" stroke-width="1" opacity="0.75" />
			</g>
		</g>
	</g>
</svg>
