<svg version="1.1" baseProfile="full" xmlns="http://www.w3.org/2000/svg" width="494.23333333333335" height="80">
	<g>
		<line x1="10" y1="40.0" x2="484.23333333333335" y2="40.0" style="stroke:rgb(70,70,70); stroke-width:3 "/>
		<g>
			<title> (ctg34_1)</title>
			<polygon class=" (ctg34_1)" points="10,10 18,40 10,70" fill="rgb(255,255,255)" fill-opacity="1.0" stroke="rgb(0,0,0)" stroke-width="2"  />
		</g>
		<g>
			<title> (ctg34_2)</title>
			<polygon class=" (ctg34_2)" points="19,25 42,25 42,10 72,40 42,70 42,55 19,55" fill="rgb(255,255,255)" fill-opacity="1.0" stroke="rgb(0,0,0)" stroke-width="2"  />
		</g>
		<g>
			<title> (ctg34_3)</title>
			<polygon class=" (ctg34_3)" points="73,10 94,40 73,70" fill="rgb(255,255,255)" fill-opacity="1.0" stroke="rgb(0,0,0)" stroke-width="2"  />
			<g>
				<title>Yip1 (PF04893)
"Yip1 domain"</title>
				<polygon class="PF04893" points="74,28 82,28 90,40 82,52 74,52" stroke-linejoin="round" width="18" height="24" fill="rgb(99,70,218)" stroke="rgb(79,56,174)" stroke-width="1" opacity="0.75" />
			</g>
		</g>
		<g>
			<title> (ctg34_4)</title>
			<polygon class=" (ctg34_4)" points="95,25 143,25 143,10 173,40 143,70 143,55 95,55" fill="rgb(255,255,255)" fill-opacity="1.0" stroke="rgb(0,0,0)" stroke-width="2"  />
			<g>
				<title>DUF5696 (PF18952)
"Family of unknown function (DUF5696)"</title>
				<polygon class="PF18952" points="111,28 157,28 169,40 157,52 111,52" stroke-linejoin="round" width="61" height="24" fill="rgb(206,227,60)" stroke="rgb(164,181,48)" stroke-width="1" opacity="0.75" />
			</g>
		</g>
		<g>
			<title> (ctg34_5)</title>
			<polygon class=" (ctg34_5)" points="173,25 185,25 185,10 215,40 185,70 185,55 173,55" fill="rgb(255,255,255)" fill-opacity="1.0" stroke="rgb(0,0,0)" stroke-width="2"  />
		</g>
		<g>
			<title> (ctg34_6)</title>
			<polygon class=" (ctg34_6)" points="216,25 228,25 228,10 258,40 228,70 228,55 216,55" fill="rgb(255,255,255)" fill-opacity="1.0" stroke="rgb(0,0,0)" stroke-width="2"  />
			<g>
				<title>BPD_transp_1 (PF00528)
"Binding-protein-dependent transport system inner membrane component"</title>
				<polygon class="PF00528" points="236,28 241,28 253,40 241,52 236,52" stroke-linejoin="round" width="21" height="24" fill="rgb(163,215,87)" stroke="rgb(130,172,69)" stroke-width="1" opacity="0.75" />
			</g>
		</g>
		<g>
			<title> (ctg34_7)</title>
			<polygon class=" (ctg34_7)" points="268,10 285,40 268,70" fill="rgb(255,255,255)" fill-opacity="1.0" stroke="rgb(0,0,0)" stroke-width="2"  />
			<g>
				<title>NUDIX (PF00293)
"NUDIX domain"</title>
				<polygon class="PF00293" points="270,28 274,28 281,40 274,52 270,52" stroke-linejoin="round" width="12" height="24" fill="rgb(67,119,185)" stroke="rgb(53,95,148)" stroke-width="1" opacity="0.75" />
			</g>
		</g>
		<g>
			<title> (ctg34_8)</title>
			<polygon class=" (ctg34_8)" points="285,10 301,40 285,70" fill="rgb(255,255,255)" fill-opacity="1.0" stroke="rgb(0,0,0)" stroke-width="2"  />
		</g>
		<g>
			<title> (ctg34_9)</title>
			<polygon class=" (ctg34_9)" points="302,10 328,40 302,70" fill="rgb(255,255,255)" fill-opacity="1.0" stroke="rgb(0,0,0)" stroke-width="2"  />
			<g>
				<title>Amidohydro_2 (PF04909)
"Amidohydrolase"</title>
				<polygon class="PF04909" points="302,28 313,28 324,40 313,52 302,52" stroke-linejoin="round" width="26" height="24" fill="rgb(159,196,83)" stroke="rgb(127,156,66)" stroke-width="1" opacity="0.75" />
			</g>
		</g>
		<g>
			<title> (ctg34_10)</title>
			<polygon class=" (ctg34_10)" points="376,25 361,25 361,10 331,40 361,70 361,55 376,55" fill="rgb(255,255,255)" fill-opacity="1.0" stroke="rgb(0,0,0)" stroke-width="2"  />
			<g>
				<title>Fer4_12 (PF13353)
"4Fe-4S single cluster domain"</title>
				<rect class="PF13353" x="353" y="28" stroke-linejoin="round" width="14" height="24" fill="rgb(86,133,197)" stroke="rgb(68,106,157)" stroke-width="1" opacity="0.75" />
			</g>
		</g>
		<g>
			<title> (ctg34_11)</title>
			<polygon class=" (ctg34_11)" points="380,40 384,10 384,70" fill="rgb(255,255,255)" fill-opacity="1.0" stroke="rgb(0,0,0)" stroke-width="2"  />
			<g>
				<title>SCIFF (PF13165)
"Six-cysteine peptide SCIFF"</title>
				<polygon class="PF13165" points="383,40 384,34 384,46" stroke-linejoin="round" width="4" height="24" fill="rgb(153,48,181)" stroke="rgb(122,38,144)" stroke-width="1" opacity="0.75" />
			</g>
		</g>
		<g>
			<title> (ctg34_12)</title>
			<polygon class=" (ctg34_12)" points="388,40 393,10 393,70" fill="rgb(255,255,255)" fill-opacity="1.0" stroke="rgb(0,0,0)" stroke-width="2"  />
		</g>
		<g>
			<title> (ctg34_13)</title>
			<polygon class=" (ctg34_13)" points="394,40 421,10 421,70" fill="rgb(255,255,255)" fill-opacity="1.0" stroke="rgb(0,0,0)" stroke-width="2"  />
			<g>
				<title>TP_methylase (PF00590)
"Tetrapyrrole (Corrin/Porphyrin) Methylases"</title>
				<polygon class="PF00590" points="401,37 409,28 421,28 421,52 409,52 401,43" stroke-linejoin="round" width="20" height="24" fill="rgb(73,199,57)" stroke="rgb(58,159,45)" stroke-width="1" opacity="0.75" />
			</g>
		</g>
		<g>
			<title> (ctg34_14)</title>
			<polygon class=" (ctg34_14)" points="422,40 446,10 446,70" fill="rgb(255,255,255)" fill-opacity="1.0" stroke="rgb(0,0,0)" stroke-width="2"  />
			<g>
				<title>MTS (PF05175)
"Methyltransferase small domain"</title>
				<polygon class="PF05175" points="429,36 436,28 444,28 444,52 436,52 429,44" stroke-linejoin="round" width="15" height="24" fill="rgb(205,133,58)" stroke="rgb(164,106,46)" stroke-width="1" opacity="0.75" />
			</g>
		</g>
		<g>
			<title> (ctg34_15)</title>
			<polygon class=" (ctg34_15)" points="484,25 477,25 477,10 447,40 477,70 477,55 484,55" fill="rgb(255,255,255)" fill-opacity="1.0" stroke="rgb(0,0,0)" stroke-width="2"  />
			<g>
				<title>TrkH (PF02386)
"Cation transport protein"</title>
				<polygon class="PF02386" points="451,40 463,28 483,28 483,52 463,52" stroke-linejoin="round" width="35" height="24" fill="rgb(204,130,83)" stroke="rgb(163,104,66)" stroke-width="1" opacity="0.75" />
			</g>
		</g>
	</g>
</svg>
