<svg version="1.1" baseProfile="full" xmlns="http://www.w3.org/2000/svg" width="740.6" height="80">
	<g>
		<line x1="10" y1="40.0" x2="730.6" y2="40.0" style="stroke:rgb(70,70,70); stroke-width:3 "/>
		<g>
			<title> (ctg4_89)</title>
			<polygon class=" (ctg4_89)" points="11,40 25,10 25,70" fill="rgb(255,255,255)" fill-opacity="1.0" stroke="rgb(0,0,0)" stroke-width="2"  />
			<g>
				<title>HSP20 (PF00011)
"Hsp20/alpha crystallin family"</title>
				<polygon class="PF00011" points="14,40 20,28 21,28 21,52 20,52" stroke-linejoin="round" width="10" height="24" fill="rgb(99,210,58)" stroke="rgb(79,168,46)" stroke-width="1" opacity="0.75" />
			</g>
		</g>
		<g>
			<title> (ctg4_90)</title>
			<polygon class=" (ctg4_90)" points="78,25 63,25 63,10 33,40 63,70 63,55 78,55" fill="rgb(255,255,255)" fill-opacity="1.0" stroke="rgb(0,0,0)" stroke-width="2"  />
			<g>
				<title>MFS_2 (PF13347)
"MFS/sugar transport protein"</title>
				<polygon class="PF13347" points="37,40 49,28 76,28 76,52 49,52" stroke-linejoin="round" width="42" height="24" fill="rgb(217,94,85)" stroke="rgb(173,75,68)" stroke-width="1" opacity="0.75" />
			</g>
		</g>
		<g>
			<title> (ctg4_91)</title>
			<polygon class=" (ctg4_91)" points="180,25 109,25 109,10 79,40 109,70 109,55 180,55" fill="rgb(255,255,255)" fill-opacity="1.0" stroke="rgb(0,0,0)" stroke-width="2"  />
			<g>
				<title>Bgal_small_N (PF02929)
"Beta galactosidase small chain"</title>
				<polygon class="PF02929" points="83,40 95,28 105,28 105,52 95,52" stroke-linejoin="round" width="26" height="24" fill="rgb(97,200,193)" stroke="rgb(77,160,154)" stroke-width="1" opacity="0.75" />
			</g>
			<g>
				<title>DUF4981 (PF16353)
"Domain of unknown function (DUF4981)"</title>
				<rect class="PF16353" x="109" y="28" stroke-linejoin="round" width="8" height="24" fill="rgb(199,119,97)" stroke="rgb(159,95,77)" stroke-width="1" opacity="0.75" />
			</g>
			<g>
				<title>Glyco_hydro_2_C (PF02836)
"Glycosyl hydrolases family 2, TIM barrel domain"</title>
				<rect class="PF02836" x="119" y="28" stroke-linejoin="round" width="30" height="24" fill="rgb(81,214,124)" stroke="rgb(64,171,99)" stroke-width="1" opacity="0.75" />
			</g>
			<g>
				<title>Glyco_hydro_2 (PF00703)
"Glycosyl hydrolases family 2"</title>
				<rect class="PF00703" x="149" y="28" stroke-linejoin="round" width="9" height="24" fill="rgb(139,108,222)" stroke="rgb(111,86,177)" stroke-width="1" opacity="0.75" />
			</g>
			<g>
				<title>Glyco_hydro_2_N (PF02837)
"Glycosyl hydrolases family 2, sugar binding domain"</title>
				<rect class="PF02837" x="159" y="28" stroke-linejoin="round" width="16" height="24" fill="rgb(97,193,222)" stroke="rgb(77,154,177)" stroke-width="1" opacity="0.75" />
			</g>
		</g>
		<g>
			<title> (ctg4_92)</title>
			<polygon class=" (ctg4_92)" points="187,10 216,40 187,70" fill="rgb(255,255,255)" fill-opacity="1.0" stroke="rgb(0,0,0)" stroke-width="2"  />
			<g>
				<title>AraC_binding (PF02311)
"AraC-like ligand binding domain"</title>
				<polygon class="PF02311" points="189,28 199,28 202,30 202,50 199,52 189,52" stroke-linejoin="round" width="13" height="24" fill="rgb(155,65,190)" stroke="rgb(123,51,152)" stroke-width="1" opacity="0.75" />
			</g>
			<g>
				<title>HTH_18 (PF12833)
"Helix-turn-helix domain"</title>
				<polygon class="PF12833" points="207,36 211,40 207,44" stroke-linejoin="round" width="7" height="24" fill="rgb(83,220,97)" stroke="rgb(66,176,77)" stroke-width="1" opacity="0.75" />
			</g>
		</g>
		<g>
			<title> (ctg4_93)</title>
			<polygon class=" (ctg4_93)" points="216,40 238,10 238,70" fill="rgb(255,255,255)" fill-opacity="1.0" stroke="rgb(0,0,0)" stroke-width="2"  />
			<g>
				<title>HAD_2 (PF13419)
"Haloacid dehalogenase-like hydrolase"</title>
				<polygon class="PF13419" points="220,40 229,28 237,28 237,52 229,52" stroke-linejoin="round" width="18" height="24" fill="rgb(178,71,183)" stroke="rgb(142,56,146)" stroke-width="1" opacity="0.75" />
			</g>
		</g>
		<g>
			<title> (ctg4_94)</title>
			<polygon class=" (ctg4_94)" points="239,40 250,10 250,70" fill="rgb(255,255,255)" fill-opacity="1.0" stroke="rgb(0,0,0)" stroke-width="2"  />
			<g>
				<title>ParE_toxin (PF05016)
"ParE toxin of type II toxin-antitoxin system, parDE"</title>
				<polygon class="PF05016" points="242,40 247,28 250,28 250,52 247,52" stroke-linejoin="round" width="9" height="24" fill="rgb(127,181,71)" stroke="rgb(101,144,56)" stroke-width="1" opacity="0.75" />
			</g>
		</g>
		<g>
			<title> (ctg4_95)</title>
			<polygon class=" (ctg4_95)" points="250,40 260,10 260,70" fill="rgb(255,255,255)" fill-opacity="1.0" stroke="rgb(0,0,0)" stroke-width="2"  />
			<g>
				<title>RelB (PF04221)
"RelB antitoxin"</title>
				<polygon class="PF04221" points="253,40 257,28 259,28 259,52 257,52" stroke-linejoin="round" width="8" height="24" fill="rgb(164,82,227)" stroke="rgb(131,65,181)" stroke-width="1" opacity="0.75" />
			</g>
		</g>
		<g>
			<title> (ctg4_96)</title>
			<polygon class=" (ctg4_96)" points="341,25 297,25 297,10 267,40 297,70 297,55 341,55" fill="rgb(255,255,255)" fill-opacity="1.0" stroke="rgb(0,0,0)" stroke-width="2"  />
			<g>
				<title>SecD_SecF (PF02355)
"Protein export membrane protein"</title>
				<polygon class="PF02355" points="271,40 283,28 288,28 288,52 283,52" stroke-linejoin="round" width="19" height="24" fill="rgb(61,192,83)" stroke="rgb(48,153,66)" stroke-width="1" opacity="0.75" />
			</g>
			<g>
				<title>Sec_GG (PF07549)
"SecD/SecF GG Motif"</title>
				<rect class="PF07549" x="294" y="28" stroke-linejoin="round" width="2" height="24" fill="rgb(100,222,112)" stroke="rgb(80,177,89)" stroke-width="1" opacity="0.75" />
			</g>
			<g>
				<title>SecD_SecF (PF02355)
"Protein export membrane protein"</title>
				<rect class="PF02355" x="301" y="28" stroke-linejoin="round" width="17" height="24" fill="rgb(61,192,83)" stroke="rgb(48,153,66)" stroke-width="1" opacity="0.75" />
			</g>
		</g>
		<g>
			<title> (ctg4_97)</title>
			<polygon class=" (ctg4_97)" points="388,25 373,25 373,10 343,40 373,70 373,55 388,55" fill="rgb(255,255,255)" fill-opacity="1.0" stroke="rgb(0,0,0)" stroke-width="2"  />
			<g>
				<title>Fer4_12 (PF13353)
"4Fe-4S single cluster domain"</title>
				<rect class="PF13353" x="365" y="28" stroke-linejoin="round" width="14" height="24" fill="rgb(86,133,197)" stroke="rgb(68,106,157)" stroke-width="1" opacity="0.75" />
			</g>
		</g>
		<g>
			<title> (ctg4_98)</title>
			<polygon class=" (ctg4_98)" points="392,40 397,10 397,70" fill="rgb(255,255,255)" fill-opacity="1.0" stroke="rgb(0,0,0)" stroke-width="2"  />
			<g>
				<title>SCIFF (PF13165)
"Six-cysteine peptide SCIFF"</title>
				<polygon class="PF13165" points="395,40 396,34 396,46" stroke-linejoin="round" width="4" height="24" fill="rgb(153,48,181)" stroke="rgb(122,38,144)" stroke-width="1" opacity="0.75" />
			</g>
		</g>
		<g>
			<title> (ctg4_99)</title>
			<polygon class=" (ctg4_99)" points="400,40 412,10 412,70" fill="rgb(255,255,255)" fill-opacity="1.0" stroke="rgb(0,0,0)" stroke-width="2"  />
			<g>
				<title>DUF3792 (PF12670)
"Protein of unknown function (DUF3792)"</title>
				<polygon class="PF12670" points="403,40 408,28 411,28 411,52 408,52" stroke-linejoin="round" width="11" height="24" fill="rgb(89,197,151)" stroke="rgb(71,157,120)" stroke-width="1" opacity="0.75" />
			</g>
		</g>
		<g>
			<title> (ctg4_100)</title>
			<polygon class=" (ctg4_100)" points="416,40 437,10 437,70" fill="rgb(255,255,255)" fill-opacity="1.0" stroke="rgb(0,0,0)" stroke-width="2"  />
			<g>
				<title>HAD_2 (PF13419)
"Haloacid dehalogenase-like hydrolase"</title>
				<polygon class="PF13419" points="420,40 429,28 437,28 437,52 429,52" stroke-linejoin="round" width="18" height="24" fill="rgb(178,71,183)" stroke="rgb(142,56,146)" stroke-width="1" opacity="0.75" />
			</g>
		</g>
		<g>
			<title> (ctg4_101)</title>
			<polygon class=" (ctg4_101)" points="633,25 470,25 470,10 440,40 470,70 470,55 633,55" fill="rgb(255,255,255)" fill-opacity="1.0" stroke="rgb(0,0,0)" stroke-width="2"  />
			<g>
				<title>Big_3_3 (PF13750)
"Bacterial Ig-like domain (group 3)"</title>
				<rect class="PF13750" x="474" y="28" stroke-linejoin="round" width="14" height="24" fill="rgb(179,80,126)" stroke="rgb(143,63,100)" stroke-width="1" opacity="0.75" />
			</g>
			<g>
				<title>Big_3_3 (PF13750)
"Bacterial Ig-like domain (group 3)"</title>
				<rect class="PF13750" x="491" y="28" stroke-linejoin="round" width="7" height="24" fill="rgb(179,80,126)" stroke="rgb(143,63,100)" stroke-width="1" opacity="0.75" />
			</g>
		</g>
		<g>
			<title> (ctg4_102)</title>
			<polygon class=" (ctg4_102)" points="634,40 660,10 660,70" fill="rgb(255,255,255)" fill-opacity="1.0" stroke="rgb(0,0,0)" stroke-width="2"  />
		</g>
	</g>
</svg>
