<svg version="1.1" baseProfile="full" xmlns="http://www.w3.org/2000/svg" width="240.3" height="80">
	<g>
		<line x1="10" y1="40.0" x2="230.3" y2="40.0" style="stroke:rgb(70,70,70); stroke-width:3 "/>
		<g>
			<title> (ctg70_1)</title>
			<polygon class=" (ctg70_1)" points="50,25 47,25 47,10 17,40 47,70 47,55 50,55" fill="rgb(255,255,255)" fill-opacity="1.0" stroke="rgb(0,0,0)" stroke-width="2"  />
		</g>
		<g>
			<title> (ctg70_2)</title>
			<polygon class=" (ctg70_2)" points="51,40 57,10 57,70" fill="rgb(255,255,255)" fill-opacity="1.0" stroke="rgb(0,0,0)" stroke-width="2"  />
		</g>
		<g>
			<title> (ctg70_3)</title>
			<polygon class=" (ctg70_3)" points="72,40 81,10 81,70" fill="rgb(255,255,255)" fill-opacity="1.0" stroke="rgb(0,0,0)" stroke-width="2"  />
			<g>
				<title>Cohesin (PF00963)
"Cohesin domain"</title>
				<polygon class="PF00963" points="75,40 79,28 79,28 79,52 79,52" stroke-linejoin="round" width="6" height="24" fill="rgb(211,97,168)" stroke="rgb(168,77,134)" stroke-width="1" opacity="0.75" />
			</g>
		</g>
		<g>
			<title> (ctg70_4)</title>
			<polygon class=" (ctg70_4)" points="90,10 114,40 90,70" fill="rgb(255,255,255)" fill-opacity="1.0" stroke="rgb(0,0,0)" stroke-width="2"  />
			<g>
				<title>LytTR (PF04397)
"LytTr DNA-binding domain"</title>
				<polygon class="PF04397" points="104,33 110,40 104,47" stroke-linejoin="round" width="9" height="24" fill="rgb(154,92,215)" stroke="rgb(123,73,172)" stroke-width="1" opacity="0.75" />
			</g>
		</g>
		<g>
			<title> (ctg70_5)</title>
			<polygon class=" (ctg70_5)" points="114,25 123,25 123,10 153,40 123,70 123,55 114,55" fill="rgb(255,255,255)" fill-opacity="1.0" stroke="rgb(0,0,0)" stroke-width="2"  />
			<g>
				<title>HATPase_c_5 (PF14501)
"GHKL domain"</title>
				<polygon class="PF14501" points="148,39 149,40 148,41" stroke-linejoin="round" width="4" height="24" fill="rgb(187,81,89)" stroke="rgb(149,64,71)" stroke-width="1" opacity="0.75" />
			</g>
		</g>
		<g>
			<title> (ctg70_6)</title>
			<polygon class=" (ctg70_6)" points="160,25 173,25 173,10 203,40 173,70 173,55 160,55" fill="rgb(255,255,255)" fill-opacity="1.0" stroke="rgb(0,0,0)" stroke-width="2"  />
			<g>
				<title>OKR_DC_1 (PF01276)
"Orn/Lys/Arg decarboxylase, major domain"</title>
				<rect class="PF01276" x="160" y="28" stroke-linejoin="round" width="27" height="24" fill="rgb(73,89,198)" stroke="rgb(58,71,158)" stroke-width="1" opacity="0.75" />
			</g>
		</g>
		<g>
			<title> (ctg70_7)</title>
			<polygon class=" (ctg70_7)" points="212,10 229,40 212,70" fill="rgb(255,255,255)" fill-opacity="1.0" stroke="rgb(0,0,0)" stroke-width="2"  />
			<g>
				<title>Fer4_12 (PF13353)
"4Fe-4S single cluster domain"</title>
				<polygon class="PF13353" points="221,32 226,40 221,48" stroke-linejoin="round" width="8" height="24" fill="rgb(86,133,197)" stroke="rgb(68,106,157)" stroke-width="1" opacity="0.75" />
			</g>
		</g>
	</g>
</svg>
