<svg version="1.1" baseProfile="full" xmlns="http://www.w3.org/2000/svg" width="695.6666666666666" height="80">
	<g>
		<line x1="10" y1="40.0" x2="685.6666666666666" y2="40.0" style="stroke:rgb(70,70,70); stroke-width:3 "/>
		<g>
			<title> (ctg1_75)</title>
			<polygon class=" (ctg1_75)" points="27,10 52,40 27,70" fill="rgb(255,255,255)" fill-opacity="1.0" stroke="rgb(0,0,0)" stroke-width="2"  />
			<g>
				<title>adh_short (PF00106)
"short chain dehydrogenase"</title>
				<polygon class="PF00106" points="27,28 38,28 45,37 45,43 38,52 27,52" stroke-linejoin="round" width="18" height="24" fill="rgb(93,152,188)" stroke="rgb(74,121,150)" stroke-width="1" opacity="0.75" />
			</g>
		</g>
		<g>
			<title> (ctg1_76)</title>
			<polygon class=" (ctg1_76)" points="52,10 75,40 52,70" fill="rgb(255,255,255)" fill-opacity="1.0" stroke="rgb(0,0,0)" stroke-width="2"  />
		</g>
		<g>
			<title> (ctg1_77)</title>
			<polygon class=" (ctg1_77)" points="76,25 82,25 82,10 112,40 82,70 82,55 76,55" fill="rgb(255,255,255)" fill-opacity="1.0" stroke="rgb(0,0,0)" stroke-width="2"  />
			<g>
				<title>AI-2E_transport (PF01594)
"AI-2E family transporter"</title>
				<polygon class="PF01594" points="77,28 96,28 108,40 96,52 77,52" stroke-linejoin="round" width="34" height="24" fill="rgb(137,228,74)" stroke="rgb(109,182,59)" stroke-width="1" opacity="0.75" />
			</g>
		</g>
		<g>
			<title> (ctg1_78)</title>
			<polygon class=" (ctg1_78)" points="115,25 127,25 127,10 157,40 127,70 127,55 115,55" fill="rgb(255,255,255)" fill-opacity="1.0" stroke="rgb(0,0,0)" stroke-width="2"  />
			<g>
				<title>Adenylsucc_synt (PF00709)
"Adenylosuccinate synthetase"</title>
				<polygon class="PF00709" points="115,28 141,28 153,40 141,52 115,52" stroke-linejoin="round" width="41" height="24" fill="rgb(76,123,212)" stroke="rgb(60,98,169)" stroke-width="1" opacity="0.75" />
			</g>
		</g>
		<g>
			<title> (ctg1_79)</title>
			<polygon class=" (ctg1_79)" points="160,10 180,40 160,70" fill="rgb(255,255,255)" fill-opacity="1.0" stroke="rgb(0,0,0)" stroke-width="2"  />
			<g>
				<title>SpoIIM (PF01944)
"Stage II sporulation protein M"</title>
				<polygon class="PF01944" points="162,28 168,28 176,40 168,52 162,52" stroke-linejoin="round" width="17" height="24" fill="rgb(65,209,143)" stroke="rgb(52,167,114)" stroke-width="1" opacity="0.75" />
			</g>
		</g>
		<g>
			<title> (ctg1_80)</title>
			<polygon class=" (ctg1_80)" points="182,10 211,40 182,70" fill="rgb(255,255,255)" fill-opacity="1.0" stroke="rgb(0,0,0)" stroke-width="2"  />
			<g>
				<title>Phage_int_SAM_1 (PF02899)
"Phage integrase, N-terminal SAM-like domain"</title>
				<rect class="PF02899" x="182" y="28" stroke-linejoin="round" width="8" height="24" fill="rgb(178,85,126)" stroke="rgb(142,68,100)" stroke-width="1" opacity="0.75" />
			</g>
			<g>
				<title>Phage_integrase (PF00589)
"Phage integrase family"</title>
				<polygon class="PF00589" points="192,28 195,28 207,40 195,52 192,52" stroke-linejoin="round" width="17" height="24" fill="rgb(104,180,218)" stroke="rgb(83,144,174)" stroke-width="1" opacity="0.75" />
			</g>
		</g>
		<g>
			<title> (ctg1_81)</title>
			<polygon class=" (ctg1_81)" points="212,25 216,25 216,10 246,40 216,70 216,55 212,55" fill="rgb(255,255,255)" fill-opacity="1.0" stroke="rgb(0,0,0)" stroke-width="2"  />
			<g>
				<title>Cu_amine_oxidN1 (PF07833)
"Copper amine oxidase N-terminal domain"</title>
				<polygon class="PF07833" points="236,34 242,40 236,46" stroke-linejoin="round" width="9" height="24" fill="rgb(217,190,97)" stroke="rgb(173,152,77)" stroke-width="1" opacity="0.75" />
			</g>
		</g>
		<g>
			<title> (ctg1_82)</title>
			<polygon class=" (ctg1_82)" points="246,40 273,10 273,70" fill="rgb(255,255,255)" fill-opacity="1.0" stroke="rgb(0,0,0)" stroke-width="2"  />
			<g>
				<title>HTH_18 (PF12833)
"Helix-turn-helix domain"</title>
				<polygon class="PF12833" points="250,40 253,37 253,43" stroke-linejoin="round" width="7" height="24" fill="rgb(83,220,97)" stroke="rgb(66,176,77)" stroke-width="1" opacity="0.75" />
			</g>
			<g>
				<title>AraC_binding (PF02311)
"AraC-like ligand binding domain"</title>
				<polygon class="PF02311" points="258,31 261,28 271,28 271,52 261,52 258,49" stroke-linejoin="round" width="13" height="24" fill="rgb(155,65,190)" stroke="rgb(123,51,152)" stroke-width="1" opacity="0.75" />
			</g>
		</g>
		<g>
			<title> (ctg1_83)</title>
			<polygon class=" (ctg1_83)" points="278,25 299,25 299,10 329,40 299,70 299,55 278,55" fill="rgb(255,255,255)" fill-opacity="1.0" stroke="rgb(0,0,0)" stroke-width="2"  />
			<g>
				<title>Glyco_hydro_57 (PF03065)
"Glycosyl hydrolase family 57"</title>
				<rect class="PF03065" x="279" y="28" stroke-linejoin="round" width="31" height="24" fill="rgb(115,183,74)" stroke="rgb(92,146,59)" stroke-width="1" opacity="0.75" />
			</g>
		</g>
		<g>
			<title> (ctg1_84)</title>
			<polygon class=" (ctg1_84)" points="343,10 352,40 343,70" fill="rgb(255,255,255)" fill-opacity="1.0" stroke="rgb(0,0,0)" stroke-width="2"  />
			<g>
				<title>PqqD (PF05402)
"Coenzyme PQQ synthesis protein D (PqqD)"</title>
				<polygon class="PF05402" points="344,28 344,28 348,40 344,52 344,52" stroke-linejoin="round" width="7" height="24" fill="rgb(218,64,155)" stroke="rgb(174,51,124)" stroke-width="1" opacity="0.75" />
			</g>
		</g>
		<g>
			<title> (ctg1_85)</title>
			<polygon class=" (ctg1_85)" points="353,25 378,25 378,10 408,40 378,70 378,55 353,55" fill="rgb(255,255,255)" fill-opacity="1.0" stroke="rgb(0,0,0)" stroke-width="2"  />
			<g>
				<title>ABC_membrane (PF00664)
"ABC transporter transmembrane region"</title>
				<rect class="PF00664" x="355" y="28" stroke-linejoin="round" width="27" height="24" fill="rgb(125,63,227)" stroke="rgb(99,50,181)" stroke-width="1" opacity="0.75" />
			</g>
			<g>
				<title>ABC_tran (PF00005)
"ABC transporter"</title>
				<polygon class="PF00005" points="388,28 392,28 403,39 403,41 392,52 388,52" stroke-linejoin="round" width="15" height="24" fill="rgb(63,205,104)" stroke="rgb(50,164,83)" stroke-width="1" opacity="0.75" />
			</g>
		</g>
		<g>
			<title> (ctg1_86)</title>
			<polygon class=" (ctg1_86)" points="410,25 412,25 412,10 442,40 412,70 412,55 410,55" fill="rgb(255,255,255)" fill-opacity="1.0" stroke="rgb(0,0,0)" stroke-width="2"  />
		</g>
		<g>
			<title> (ctg1_87)</title>
			<polygon class=" (ctg1_87)" points="443,10 449,40 443,70" fill="rgb(255,255,255)" fill-opacity="1.0" stroke="rgb(0,0,0)" stroke-width="2"  />
		</g>
		<g>
			<title> (ctg1_88)</title>
			<polygon class=" (ctg1_88)" points="450,10 478,40 450,70" fill="rgb(255,255,255)" fill-opacity="1.0" stroke="rgb(0,0,0)" stroke-width="2"  />
		</g>
		<g>
			<title> (ctg1_89)</title>
			<polygon class=" (ctg1_89)" points="479,25 502,25 502,10 532,40 502,70 502,55 479,55" fill="rgb(255,255,255)" fill-opacity="1.0" stroke="rgb(0,0,0)" stroke-width="2"  />
			<g>
				<title>SLH (PF00395)
"S-layer homology domain"</title>
				<rect class="PF00395" x="481" y="28" stroke-linejoin="round" width="4" height="24" fill="rgb(74,169,212)" stroke="rgb(59,135,169)" stroke-width="1" opacity="0.75" />
			</g>
		</g>
		<g>
			<title> (ctg1_90)</title>
			<polygon class=" (ctg1_90)" points="533,10 557,40 533,70" fill="rgb(255,255,255)" fill-opacity="1.0" stroke="rgb(0,0,0)" stroke-width="2"  />
			<g>
				<title>Wzz (PF02706)
"Chain length determinant protein"</title>
				<rect class="PF02706" x="533" y="28" stroke-linejoin="round" width="9" height="24" fill="rgb(88,46,187)" stroke="rgb(70,36,149)" stroke-width="1" opacity="0.75" />
			</g>
		</g>
		<g>
			<title> (ctg1_91)</title>
			<polygon class=" (ctg1_91)" points="580,25 599,25 599,10 629,40 599,70 599,55 580,55" fill="rgb(255,255,255)" fill-opacity="1.0" stroke="rgb(0,0,0)" stroke-width="2"  />
			<g>
				<title>Trypsin_2 (PF13365)
"Trypsin-like peptidase domain"</title>
				<rect class="PF13365" x="598" y="28" stroke-linejoin="round" width="13" height="24" fill="rgb(229,136,83)" stroke="rgb(183,108,66)" stroke-width="1" opacity="0.75" />
			</g>
			<g>
				<title>PDZ_2 (PF13180)
"PDZ domain"</title>
				<polygon class="PF13180" points="616,32 624,40 624,40 616,48" stroke-linejoin="round" width="8" height="24" fill="rgb(74,105,195)" stroke="rgb(59,84,156)" stroke-width="1" opacity="0.75" />
			</g>
		</g>
		<g>
			<title> (ctg1_92)</title>
			<polygon class=" (ctg1_92)" points="635,10 664,40 635,70" fill="rgb(255,255,255)" fill-opacity="1.0" stroke="rgb(0,0,0)" stroke-width="2"  />
			<g>
				<title>Alpha_L_fucos (PF01120)
"Alpha-L-fucosidase"</title>
				<polygon class="PF01120" points="635,28 648,28 660,40 648,52 635,52" stroke-linejoin="round" width="29" height="24" fill="rgb(100,193,201)" stroke="rgb(80,154,160)" stroke-width="1" opacity="0.75" />
			</g>
		</g>
	</g>
</svg>
