<svg version="1.1" baseProfile="full" xmlns="http://www.w3.org/2000/svg" width="416.9" height="80">
	<g>
		<line x1="10" y1="40.0" x2="406.9" y2="40.0" style="stroke:rgb(70,70,70); stroke-width:3 "/>
		<g>
			<title> (ctg15_1)</title>
			<polygon class=" (ctg15_1)" points="10,10 14,40 10,70" fill="rgb(255,255,255)" fill-opacity="1.0" stroke="rgb(0,0,0)" stroke-width="2"  />
		</g>
		<g>
			<title> (ctg15_2)</title>
			<polygon class=" (ctg15_2)" points="16,10 22,40 16,70" fill="rgb(255,255,255)" fill-opacity="1.0" stroke="rgb(0,0,0)" stroke-width="2"  />
		</g>
		<g>
			<title> (ctg15_3)</title>
			<polygon class=" (ctg15_3)" points="25,25 42,25 42,10 72,40 42,70 42,55 25,55" fill="rgb(255,255,255)" fill-opacity="1.0" stroke="rgb(0,0,0)" stroke-width="2"  />
			<g>
				<title>Radical_SAM (PF04055)
"Radical SAM superfamily"</title>
				<rect class="PF04055" x="34" y="28" stroke-linejoin="round" width="16" height="24" fill="rgb(184,71,96)" stroke="rgb(147,56,76)" stroke-width="1" opacity="0.75" />
			</g>
		</g>
		<g>
			<title> (ctg15_4)</title>
			<polygon class=" (ctg15_4)" points="73,25 78,25 78,10 108,40 78,70 78,55 73,55" fill="rgb(255,255,255)" fill-opacity="1.0" stroke="rgb(0,0,0)" stroke-width="2"  />
		</g>
		<g>
			<title> (ctg15_5)</title>
			<polygon class=" (ctg15_5)" points="109,10 118,40 109,70" fill="rgb(255,255,255)" fill-opacity="1.0" stroke="rgb(0,0,0)" stroke-width="2"  />
		</g>
		<g>
			<title> (ctg15_6)</title>
			<polygon class=" (ctg15_6)" points="118,25 134,25 134,10 164,40 134,70 134,55 118,55" fill="rgb(255,255,255)" fill-opacity="1.0" stroke="rgb(0,0,0)" stroke-width="2"  />
			<g>
				<title>Peptidase_S8 (PF00082)
"Subtilase family"</title>
				<rect class="PF00082" x="118" y="28" stroke-linejoin="round" width="22" height="24" fill="rgb(110,83,205)" stroke="rgb(88,66,164)" stroke-width="1" opacity="0.75" />
			</g>
		</g>
		<g>
			<title> (ctg15_7)</title>
			<polygon class=" (ctg15_7)" points="164,25 191,25 191,10 221,40 191,70 191,55 164,55" fill="rgb(255,255,255)" fill-opacity="1.0" stroke="rgb(0,0,0)" stroke-width="2"  />
			<g>
				<title>ABC_membrane (PF00664)
"ABC transporter transmembrane region"</title>
				<rect class="PF00664" x="166" y="28" stroke-linejoin="round" width="27" height="24" fill="rgb(125,63,227)" stroke="rgb(99,50,181)" stroke-width="1" opacity="0.75" />
			</g>
			<g>
				<title>ABC_tran (PF00005)
"ABC transporter"</title>
				<polygon class="PF00005" points="199,28 204,28 213,37 213,43 204,52 199,52" stroke-linejoin="round" width="14" height="24" fill="rgb(63,205,104)" stroke="rgb(50,164,83)" stroke-width="1" opacity="0.75" />
			</g>
		</g>
		<g>
			<title> (ctg15_8)</title>
			<polygon class=" (ctg15_8)" points="225,10 236,40 225,70" fill="rgb(255,255,255)" fill-opacity="1.0" stroke="rgb(0,0,0)" stroke-width="2"  />
			<g>
				<title>HTH_3 (PF01381)
"Helix-turn-helix"</title>
				<polygon class="PF01381" points="226,28 228,28 231,35 231,45 228,52 226,52" stroke-linejoin="round" width="5" height="24" fill="rgb(219,185,98)" stroke="rgb(175,148,78)" stroke-width="1" opacity="0.75" />
			</g>
		</g>
		<g>
			<title> (ctg15_9)</title>
			<polygon class=" (ctg15_9)" points="352,25 319,25 319,10 289,40 319,70 319,55 352,55" fill="rgb(255,255,255)" fill-opacity="1.0" stroke="rgb(0,0,0)" stroke-width="2"  />
			<g>
				<title>ABC_tran (PF00005)
"ABC transporter"</title>
				<polygon class="PF00005" points="296,37 305,28 310,28 310,52 305,52 296,43" stroke-linejoin="round" width="14" height="24" fill="rgb(63,205,104)" stroke="rgb(50,164,83)" stroke-width="1" opacity="0.75" />
			</g>
			<g>
				<title>ABC_membrane (PF00664)
"ABC transporter transmembrane region"</title>
				<rect class="PF00664" x="320" y="28" stroke-linejoin="round" width="27" height="24" fill="rgb(125,63,227)" stroke="rgb(99,50,181)" stroke-width="1" opacity="0.75" />
			</g>
		</g>
	</g>
</svg>
